<svg xmlns="http://www.w3.org/2000/svg" viewBox="0 0 128.18 30"><defs><style>.cls-1{fill:#e9ecef;fill-rule:evenodd;}</style></defs><title>devim-light</title><g id="Camada_2" data-name="Camada 2"><g id="Camada_1-2" data-name="Camada 1"><g id="devim-light"><path class="cls-1" d="M101.1,14.41V29.9h5.3V14a2.54,2.54,0,0,1,2.71-2.3,2.49,2.49,0,0,1,2.65,2.3V29.9h5.76V14a2.49,2.49,0,0,1,2.65-2.3,2.54,2.54,0,0,1,2.71,2.3V29.9h5.3V14.41c0-4.67-2.84-7.16-6.79-7.17l-6.75,0-6.39,0c-4,0-7.15,2.5-7.15,7.17ZM98.21,30V7.14H92.85V30ZM51.53,23.16A6.13,6.13,0,0,1,49.18,28a8.56,8.56,0,0,1-5.72,2,8.47,8.47,0,0,1-5.65-2,6.14,6.14,0,0,1-2.36-4.84v-9a6.15,6.15,0,0,1,2.36-4.85,8.47,8.47,0,0,1,5.65-2h2.71V2.73h5.36V23.16Zm-10.72,0a2.09,2.09,0,0,0,.77,1.62,2.74,2.74,0,0,0,1.88.67,2.86,2.86,0,0,0,1.92-.67,2.05,2.05,0,0,0,.79-1.62V11.82H43.46a2.74,2.74,0,0,0-1.88.67,2.1,2.1,0,0,0-.77,1.63v9Zm29.1-2.25H59.19v2.25A2.09,2.09,0,0,0,60,24.78a2.74,2.74,0,0,0,1.88.67,2.86,2.86,0,0,0,1.92-.67,2.05,2.05,0,0,0,.79-1.62h5.36A6.14,6.14,0,0,1,67.55,28a9,9,0,0,1-11.36,0,6.18,6.18,0,0,1-2.36-4.82V14.07a6.09,6.09,0,0,1,2.36-4.8,9.07,9.07,0,0,1,11.36,0,6.06,6.06,0,0,1,2.36,4.8v6.84Zm-5.42-6.84a2,2,0,0,0-.76-1.6,3.06,3.06,0,0,0-3.77,0,2,2,0,0,0-.77,1.6v2.29h5.36l-.06-2.29ZM80.74,25a1.54,1.54,0,0,1-1.26-1.35l-3-16.46H71.08L74.53,25c.4,2,1.73,4.82,4.08,4.82h4.26c2.35,0,3.68-2.8,4.07-4.82L90.4,7.22H85L82,23.68A1.52,1.52,0,0,1,80.74,25Z"/><path class="cls-1" d="M10,3.82h6.85a.6.6,0,0,1,.61.6V9.25A3.53,3.53,0,0,0,20.9,13h5.27a.6.6,0,0,1,.61.59v6.7a.6.6,0,0,1-.61.59H20.83a3.48,3.48,0,0,0-3.41,3.39v5.17a.6.6,0,0,1-.61.59H10a.6.6,0,0,1-.6-.59v-6.7a.6.6,0,0,1,.6-.59h5.53a3.15,3.15,0,0,0,3.23-3.27V14.74a2.93,2.93,0,0,0-3.16-3H10a.59.59,0,0,1-.6-.59V4.42A.6.6,0,0,1,10,3.82Z"/><path class="cls-1" d="M20.8,22.12h6V30H18.72V24.42a2.14,2.14,0,0,1,2.08-2.3Z"/><polygon class="cls-1" points="0 22.12 8.06 22.12 8.06 30 0 30 0 22.12 0 22.12"/><polygon class="cls-1" points="0 12.97 8.06 12.97 8.06 20.85 0 20.85 0 12.97 0 12.97"/><polygon class="cls-1" points="0 3.82 8.06 3.82 8.06 11.7 0 11.7 0 3.82 0 3.82"/><path class="cls-1" d="M29.32,6.88h2.81a.6.6,0,0,1,.6.59v2.75a.59.59,0,0,1-.6.58H29.32a.59.59,0,0,1-.61-.58V7.47a.6.6,0,0,1,.61-.59Z"/><path class="cls-1" d="M20.83,11.7h6V5.1H30a.78.78,0,0,0,.79-.76V.77A.78.78,0,0,0,30,0H26.34a.77.77,0,0,0-.78.77v3H18.72V9.6A2.08,2.08,0,0,0,20.83,11.7Z"/></g></g></g></svg>